# This file uses centimeters as units for non-parametric coordinates.

mtllib wall.mtl
g default
v -983.694629 177.320814 266.551261
v -542.178704 177.320814 266.551261
v -983.694629 618.836739 266.551261
v -542.178704 618.836739 266.551261
v -983.694629 618.836739 -174.964664
v -542.178704 618.836739 -174.964664
v -983.694629 177.320814 -174.964664
v -542.178704 177.320814 -174.964664
vt 0.375000 0.000000
vt 0.625000 0.000000
vt 0.375000 0.250000
vt 0.625000 0.250000
vt 0.875000 0.000000
vt 0.875000 0.250000
vt 0.125000 0.000000
vt 0.125000 0.250000
vn 0.000000 0.000000 1.000000
vn 0.000000 0.000000 1.000000
vn 0.000000 0.000000 1.000000
vn 0.000000 0.000000 1.000000
vn 1.000000 0.000000 0.000000
vn 1.000000 0.000000 0.000000
vn 1.000000 0.000000 0.000000
vn 1.000000 0.000000 0.000000
vn -1.000000 0.000000 0.000000
vn -1.000000 0.000000 0.000000
vn -1.000000 0.000000 0.000000
vn -1.000000 0.000000 0.000000
s off
g pCube125
usemtl initialShadingGroup
f 1/1/1 2/2/2 4/4/3 3/3/4
f 2/2/5 8/5/6 6/6/7 4/4/8
f 7/7/9 1/1/10 3/3/11 5/8/12
