# This file uses centimeters as units for non-parametric coordinates.

mtllib cheese corner.mtl
g default
v 255.096231 116.692928 157.807826
v 253.066700 116.692928 161.791095
v 252.367314 116.692928 166.206582
v 253.066700 116.692928 170.622068
v 255.096231 131.628946 157.807826
v 253.066700 131.628946 161.791095
v 252.367314 131.628946 166.206582
v 253.066700 131.628946 170.622068
v 266.656147 116.692928 166.206582
v 266.656147 131.628946 166.206582
vt 0.418045 0.188454
vt 0.351397 0.107966
vt 0.343750 0.156250
vt 0.425699 0.258517
vt 0.475000 0.312500
vt 0.487500 0.312500
vt 0.418045 0.811546
vt 0.475000 0.687500
vt 0.487500 0.687500
vt 0.425699 0.741483
vt 0.343750 0.843750
vt 0.351397 0.892034
vt 0.500000 0.156250
vt 0.500000 0.843750
vn -0.891011 0.000000 -0.453982
vn -0.951057 0.000000 -0.309016
vn -0.951057 0.000000 -0.309016
vn -0.891011 0.000000 -0.453982
vn -1.000000 0.000000 0.000000
vn -1.000000 0.000000 0.000000
vn -0.987687 0.000000 0.156443
vn -0.987687 0.000000 0.156443
vn 0.000000 -1.000000 0.000000
vn 0.000000 -1.000000 0.000000
vn 0.000000 -1.000000 0.000000
vn 0.000000 -1.000000 0.000000
vn 0.000000 -1.000000 0.000000
vn 0.000000 1.000000 0.000000
vn 0.000000 1.000000 0.000000
vn 0.000000 1.000000 0.000000
vn 0.000000 1.000000 0.000000
vn 0.000000 1.000000 0.000000
vn 0.309017 0.000000 0.951056
vn 0.309017 0.000000 0.951056
vn 0.309017 0.000000 0.951056
vn 0.309017 0.000000 0.951056
vn 0.587785 0.000000 -0.809017
vn 0.587785 0.000000 -0.809017
vn 0.587785 0.000000 -0.809017
vn 0.587785 0.000000 -0.809017
s 1
g pCylinder17 group18
usemtl initialShadingGroup
f 1/1/1 2/5/2 6/8/3 5/7/4
f 2/5/2 3/6/5 7/9/6 6/8/3
f 3/6/5 4/4/7 8/10/8 7/9/6
s 2
f 2/2/9 1/1/10 9/13/11
f 3/3/12 2/2/9 9/13/11
f 4/4/13 3/3/12 9/13/11
s 3
f 5/7/14 6/12/15 10/14/16
f 6/12/15 7/11/17 10/14/16
f 7/11/17 8/10/18 10/14/16
s off
f 4/4/19 9/13/20 10/14/21 8/10/22
f 9/13/23 1/1/24 5/7/25 10/14/26
