# This file uses centimeters as units for non-parametric coordinates.

mtllib BlockOut_shelf1.mtl
g default
v -73.647960 -1.101760 -12.739422
v 69.804868 -1.101760 -12.739422
v -73.647960 15.368671 -12.739422
v 69.804868 15.368671 -12.739422
v -73.647960 15.368671 -16.235946
v 69.804868 15.368671 -16.235946
v -73.647960 -1.101760 -16.235946
v 69.804868 -1.101760 -16.235946
vt 0.375000 0.000000
vt 0.625000 0.000000
vt 0.375000 0.250000
vt 0.625000 0.250000
vt 0.375000 0.500000
vt 0.625000 0.500000
vt 0.375000 0.750000
vt 0.625000 0.750000
vt 0.375000 1.000000
vt 0.625000 1.000000
vt 0.875000 0.000000
vt 0.875000 0.250000
vt 0.125000 0.000000
vt 0.125000 0.250000
vn 0.000000 0.000000 1.000000
vn 0.000000 0.000000 1.000000
vn 0.000000 0.000000 1.000000
vn 0.000000 0.000000 1.000000
vn 0.000000 1.000000 0.000000
vn 0.000000 1.000000 0.000000
vn 0.000000 1.000000 0.000000
vn 0.000000 1.000000 0.000000
vn 0.000000 0.000000 -1.000000
vn 0.000000 0.000000 -1.000000
vn 0.000000 0.000000 -1.000000
vn 0.000000 0.000000 -1.000000
vn 0.000000 -1.000000 0.000000
vn 0.000000 -1.000000 0.000000
vn 0.000000 -1.000000 0.000000
vn 0.000000 -1.000000 0.000000
vn 1.000000 0.000000 0.000000
vn 1.000000 0.000000 0.000000
vn 1.000000 0.000000 0.000000
vn 1.000000 0.000000 0.000000
vn -1.000000 0.000000 0.000000
vn -1.000000 0.000000 0.000000
vn -1.000000 0.000000 0.000000
vn -1.000000 0.000000 0.000000
s off
g pCube3
usemtl initialShadingGroup
f 1/1/1 2/2/2 4/4/3 3/3/4
f 3/3/5 4/4/6 6/6/7 5/5/8
f 5/5/9 6/6/10 8/8/11 7/7/12
f 7/7/13 8/8/14 2/10/15 1/9/16
f 2/2/17 8/11/18 6/12/19 4/4/20
f 7/13/21 1/1/22 3/3/23 5/14/24
g default
v 67.148373 14.292441 -16.695717
v 67.148373 52.023313 -17.771510
v 67.148373 66.214853 -20.019230
v 67.148373 79.017226 -26.542365
v 67.148373 89.177246 -36.702386
v 67.148373 95.700382 -49.504761
v 67.148373 97.948100 -63.696300
v 65.148373 14.292441 -16.695717
v 65.148373 52.023313 -17.771510
v 65.148373 66.214853 -20.019230
v 65.148373 79.017226 -26.542365
v 65.148373 89.177246 -36.702386
v 65.148373 95.700382 -49.504761
v 65.148373 97.948100 -63.696300
v 67.148373 14.728971 -64.143916
v 65.148373 14.728969 -64.143916
vt 0.451716 0.304853
vt 0.500000 0.312500
vt 0.548284 0.304853
vt 0.591841 0.282659
vt 0.626409 0.248091
vt 0.648603 0.204534
vt 0.656250 0.156250
vt 0.537500 0.312500
vt 0.550000 0.312500
vt 0.562500 0.312500
vt 0.575000 0.312500
vt 0.587500 0.312500
vt 0.600000 0.312500
vt 0.612500 0.312500
vt 0.537500 0.687500
vt 0.550000 0.687500
vt 0.562500 0.687500
vt 0.575000 0.687500
vt 0.587500 0.687500
vt 0.600000 0.687500
vt 0.612500 0.687500
vt 0.648603 0.795466
vt 0.626409 0.751908
vt 0.591842 0.717341
vt 0.548284 0.695147
vt 0.500000 0.687500
vt 0.451716 0.695147
vt 0.656250 0.843750
vt 0.500000 0.156250
vt 0.500000 0.843750
vn -0.000000 0.028501 0.999594
vn -0.000000 0.063879 0.997958
vn -0.000000 0.063879 0.997958
vn -0.000000 0.028501 0.999594
vn -0.000000 0.309017 0.951056
vn -0.000000 0.309017 0.951056
vn -0.000000 0.587785 0.809017
vn -0.000000 0.587785 0.809017
vn -0.000000 0.809017 0.587785
vn -0.000000 0.809017 0.587785
vn -0.000000 0.951056 0.309017
vn -0.000000 0.951056 0.309017
vn -0.000000 0.987688 0.156434
vn -0.000000 0.987688 0.156434
vn 1.000000 0.000000 0.000000
vn 1.000000 0.000000 0.000000
vn 1.000000 0.000000 0.000000
vn 1.000000 0.000000 0.000000
vn 1.000000 0.000000 0.000000
vn 1.000000 0.000000 0.000000
vn 1.000000 0.000000 0.000000
vn 1.000000 0.000000 0.000000
vn -1.000000 -0.000000 0.000000
vn -1.000000 -0.000000 0.000000
vn -1.000000 -0.000000 -0.000000
vn -1.000000 -0.000000 -0.000000
vn -1.000000 -0.000000 -0.000000
vn -1.000000 -0.000000 0.000000
vn -1.000000 -0.000000 -0.000000
vn -1.000000 -0.000000 -0.000000
s 1
g pCylinder3
usemtl initialShadingGroup
f 9/22/25 10/23/26 17/30/27 16/29/28
f 10/23/26 11/24/29 18/31/30 17/30/27
f 11/24/29 12/25/31 19/32/32 18/31/30
f 12/25/31 13/26/33 20/33/34 19/32/32
f 13/26/33 14/27/35 21/34/36 20/33/34
f 14/27/35 15/28/37 22/35/38 21/34/36
s 2
f 10/16/39 9/15/40 23/43/41
f 11/17/42 10/16/39 23/43/41
f 12/18/43 11/17/42 23/43/41
f 13/19/44 12/18/43 23/43/41
f 14/20/45 13/19/44 23/43/41
f 15/21/46 14/20/45 23/43/41
s 3
f 16/41/47 17/40/48 24/44/49
f 17/40/48 18/39/50 24/44/49
f 18/39/50 19/38/51 24/44/49
f 19/38/51 20/37/52 24/44/49
f 20/37/52 21/36/53 24/44/49
f 21/36/53 22/42/54 24/44/49
g default
v -72.365944 -0.782656 -63.048057
v 67.384139 -0.782656 -63.048057
v -72.365944 -0.782656 -14.289452
v 67.384139 -0.782656 -14.289452
v -72.365944 15.365656 -14.289452
v 67.384139 15.365656 -14.289452
v -72.365944 15.365656 -63.048057
v 67.384139 15.365656 -63.048057
vt 0.375000 0.000000
vt 0.625000 0.000000
vt 0.375000 0.250000
vt 0.625000 0.250000
vt 0.375000 0.500000
vt 0.625000 0.500000
vt 0.375000 0.750000
vt 0.625000 0.750000
vt 0.375000 1.000000
vt 0.625000 1.000000
vt 0.875000 0.000000
vt 0.875000 0.250000
vt 0.125000 0.000000
vt 0.125000 0.250000
vn 0.000000 -1.000000 -0.000000
vn 0.000000 -1.000000 -0.000000
vn 0.000000 -1.000000 -0.000000
vn 0.000000 -1.000000 -0.000000
vn 0.000000 -0.000000 1.000000
vn 0.000000 -0.000000 1.000000
vn 0.000000 -0.000000 1.000000
vn 0.000000 -0.000000 1.000000
vn 0.000000 1.000000 0.000000
vn 0.000000 1.000000 0.000000
vn 0.000000 1.000000 0.000000
vn 0.000000 1.000000 0.000000
vn 0.000000 0.000000 -1.000000
vn 0.000000 0.000000 -1.000000
vn 0.000000 0.000000 -1.000000
vn 0.000000 0.000000 -1.000000
vn 1.000000 0.000000 0.000000
vn 1.000000 0.000000 0.000000
vn 1.000000 0.000000 0.000000
vn 1.000000 0.000000 0.000000
vn -1.000000 -0.000000 0.000000
vn -1.000000 -0.000000 0.000000
vn -1.000000 -0.000000 0.000000
vn -1.000000 -0.000000 0.000000
s off
g pCube5
usemtl initialShadingGroup
f 25/45/55 26/46/56 28/48/57 27/47/58
f 27/47/59 28/48/60 30/50/61 29/49/62
f 29/49/63 30/50/64 32/52/65 31/51/66
f 31/51/67 32/52/68 26/54/69 25/53/70
f 26/46/71 32/55/72 30/56/73 28/48/74
f 31/57/75 25/45/76 27/47/77 29/58/78
g default
v -69.555833 14.292441 -16.695717
v -69.555833 52.023313 -17.771510
v -69.555833 66.214853 -20.019230
v -69.555833 79.017226 -26.542365
v -69.555833 89.177246 -36.702386
v -69.555833 95.700382 -49.504761
v -69.555833 97.948100 -63.696300
v -71.555833 14.292441 -16.695717
v -71.555833 52.023313 -17.771510
v -71.555833 66.214853 -20.019230
v -71.555833 79.017226 -26.542365
v -71.555833 89.177246 -36.702386
v -71.555833 95.700382 -49.504761
v -71.555833 97.948100 -63.696300
v -69.555833 14.728971 -64.143916
v -71.555833 14.728969 -64.143916
vt 0.451716 0.304853
vt 0.500000 0.312500
vt 0.548284 0.304853
vt 0.591841 0.282659
vt 0.626409 0.248091
vt 0.648603 0.204534
vt 0.656250 0.156250
vt 0.537500 0.312500
vt 0.550000 0.312500
vt 0.562500 0.312500
vt 0.575000 0.312500
vt 0.587500 0.312500
vt 0.600000 0.312500
vt 0.612500 0.312500
vt 0.537500 0.687500
vt 0.550000 0.687500
vt 0.562500 0.687500
vt 0.575000 0.687500
vt 0.587500 0.687500
vt 0.600000 0.687500
vt 0.612500 0.687500
vt 0.648603 0.795466
vt 0.626409 0.751908
vt 0.591842 0.717341
vt 0.548284 0.695147
vt 0.500000 0.687500
vt 0.451716 0.695147
vt 0.656250 0.843750
vt 0.500000 0.156250
vt 0.500000 0.843750
vn -0.000000 0.028501 0.999594
vn -0.000000 0.063879 0.997958
vn -0.000000 0.063879 0.997958
vn -0.000000 0.028501 0.999594
vn -0.000000 0.309017 0.951056
vn -0.000000 0.309017 0.951056
vn -0.000000 0.587785 0.809017
vn -0.000000 0.587785 0.809017
vn -0.000000 0.809017 0.587785
vn -0.000000 0.809017 0.587785
vn -0.000000 0.951056 0.309017
vn -0.000000 0.951056 0.309017
vn -0.000000 0.987688 0.156434
vn -0.000000 0.987688 0.156434
vn 1.000000 0.000000 0.000000
vn 1.000000 0.000000 0.000000
vn 1.000000 0.000000 0.000000
vn 1.000000 0.000000 0.000000
vn 1.000000 0.000000 0.000000
vn 1.000000 0.000000 0.000000
vn 1.000000 0.000000 0.000000
vn 1.000000 0.000000 0.000000
vn -1.000000 -0.000000 0.000000
vn -1.000000 -0.000000 0.000000
vn -1.000000 -0.000000 -0.000000
vn -1.000000 -0.000000 -0.000000
vn -1.000000 -0.000000 -0.000000
vn -1.000000 -0.000000 0.000000
vn -1.000000 -0.000000 -0.000000
vn -1.000000 -0.000000 -0.000000
s 1
g pCylinder1
usemtl initialShadingGroup
f 33/66/79 34/67/80 41/74/81 40/73/82
f 34/67/80 35/68/83 42/75/84 41/74/81
f 35/68/83 36/69/85 43/76/86 42/75/84
f 36/69/85 37/70/87 44/77/88 43/76/86
f 37/70/87 38/71/89 45/78/90 44/77/88
f 38/71/89 39/72/91 46/79/92 45/78/90
s 2
f 34/60/93 33/59/94 47/87/95
f 35/61/96 34/60/93 47/87/95
f 36/62/97 35/61/96 47/87/95
f 37/63/98 36/62/97 47/87/95
f 38/64/99 37/63/98 47/87/95
f 39/65/100 38/64/99 47/87/95
s 3
f 40/85/101 41/84/102 48/88/103
f 41/84/102 42/83/104 48/88/103
f 42/83/104 43/82/105 48/88/103
f 43/82/105 44/81/106 48/88/103
f 44/81/106 45/80/107 48/88/103
f 45/80/107 46/86/108 48/88/103
g default
v -74.574625 -0.799596 -60.334727
v 69.799403 -0.799596 -60.334727
v -74.574625 101.438939 -60.334727
v 69.799403 101.438939 -60.334727
v -74.574625 101.438939 -64.361672
v 69.799403 101.438939 -64.361672
v -74.574625 -0.799596 -64.361672
v 69.799403 -0.799596 -64.361672
vt 0.375000 0.000000
vt 0.625000 0.000000
vt 0.375000 0.250000
vt 0.625000 0.250000
vt 0.375000 0.500000
vt 0.625000 0.500000
vt 0.375000 0.750000
vt 0.625000 0.750000
vt 0.375000 1.000000
vt 0.625000 1.000000
vt 0.875000 0.000000
vt 0.875000 0.250000
vt 0.125000 0.000000
vt 0.125000 0.250000
vn 0.000000 0.000000 1.000000
vn 0.000000 0.000000 1.000000
vn 0.000000 0.000000 1.000000
vn 0.000000 0.000000 1.000000
vn 0.000000 1.000000 0.000000
vn 0.000000 1.000000 0.000000
vn 0.000000 1.000000 0.000000
vn 0.000000 1.000000 0.000000
vn 0.000000 0.000000 -1.000000
vn 0.000000 0.000000 -1.000000
vn 0.000000 0.000000 -1.000000
vn 0.000000 0.000000 -1.000000
vn 0.000000 -1.000000 0.000000
vn 0.000000 -1.000000 0.000000
vn 0.000000 -1.000000 0.000000
vn 0.000000 -1.000000 0.000000
vn 1.000000 0.000000 0.000000
vn 1.000000 0.000000 0.000000
vn 1.000000 0.000000 0.000000
vn 1.000000 0.000000 0.000000
vn -1.000000 0.000000 0.000000
vn -1.000000 0.000000 0.000000
vn -1.000000 0.000000 0.000000
vn -1.000000 0.000000 0.000000
s off
g pCube4
usemtl initialShadingGroup
f 49/89/109 50/90/110 52/92/111 51/91/112
f 51/91/113 52/92/114 54/94/115 53/93/116
f 53/93/117 54/94/118 56/96/119 55/95/120
f 55/95/121 56/96/122 50/98/123 49/97/124
f 50/90/125 56/99/126 54/100/127 52/92/128
f 55/101/129 49/89/130 51/91/131 53/102/132
